<svg width="22" height="22" viewBox="0 0 22 22" fill="none" xmlns="http://www.w3.org/2000/svg">
<path d="M10.9997 0C6.79002 0 3.3653 3.42523 3.3653 7.63498C3.3653 11.6872 10.2921 21.1547 10.587 21.5556L10.8623 21.9302C10.8945 21.9743 10.9457 22 10.9997 22C11.0544 22 11.1054 21.9743 11.1379 21.9302L11.413 21.5556C11.7081 21.1547 18.6347 11.6872 18.6347 7.63498C18.6347 3.42523 15.2094 0 10.9997 0ZM10.9997 4.90014C12.508 4.90014 13.7345 6.12671 13.7345 7.63498C13.7345 9.14247 12.5079 10.3698 10.9997 10.3698C9.49223 10.3698 8.26483 9.14247 8.26483 7.63498C8.26483 6.12671 9.49217 4.90014 10.9997 4.90014Z" fill="white"/>
</svg>
