<svg width="40" height="40" viewBox="0 0 40 40" fill="none" xmlns="http://www.w3.org/2000/svg">
<g clip-path="url(#clip0_5_242)">
<path d="M21.1172 40.2344C10.5703 40.2344 2 31.6562 2 21.1172C2 10.5781 10.5781 2 21.1172 2C21.7578 2 22.3984 2.03125 23.0391 2.09375C23.6016 2.14844 24.0938 2.5 24.3281 3.00781C24.5625 3.51562 24.5156 4.11719 24.2031 4.58594C22.4062 7.22656 21.4531 10.3125 21.4531 13.5078C21.4531 21.7109 27.6016 28.5234 35.7656 29.3359C36.3281 29.3906 36.8203 29.7422 37.0547 30.25C37.2969 30.7578 37.2422 31.3594 36.9297 31.8281C33.3516 37.0938 27.4453 40.2344 21.1172 40.2344ZM20.1406 5.23437C11.8203 5.74219 5.20312 12.6719 5.20312 21.1172C5.20312 29.8906 12.3438 37.0312 21.1172 37.0312C25.5234 37.0312 29.6797 35.2031 32.6641 32.0547C29.0547 31.1406 25.7812 29.1797 23.2266 26.3828C20.0156 22.8516 18.2422 18.2891 18.2422 13.5234C18.25 10.625 18.8984 7.80469 20.1406 5.23437Z" fill="white"/>
</g>
<defs>
<clipPath id="clip0_5_242">
<rect width="40" height="40" fill="white"/>
</clipPath>
</defs>
</svg>
