<svg width="17" height="17" viewBox="0 0 17 17" fill="none" xmlns="http://www.w3.org/2000/svg">
<g clip-path="url(#clip0_4_62)">
<path d="M16.5949 16.4566L11.8258 11.4968C13.0422 10.2768 13.7959 8.595 13.7959 6.74017C13.7959 3.02345 10.7724 0 7.05568 0C3.33895 0 0.315506 3.02345 0.315506 6.74017C0.315506 10.4569 3.33895 13.4803 7.05568 13.4803C8.68712 13.4803 10.1844 12.8972 11.3514 11.9295L16.1321 16.9015C16.195 16.9673 16.2791 17 16.3635 17C16.4438 17 16.5237 16.9701 16.586 16.9105C16.7137 16.7875 16.7176 16.5844 16.5949 16.4566ZM7.05568 12.8384C3.69297 12.8384 0.957427 10.1029 0.957427 6.74017C0.957427 3.37747 3.69297 0.641921 7.05568 0.641921C10.4184 0.641921 13.1539 3.37747 13.1539 6.74017C13.1539 10.1029 10.4181 12.8384 7.05568 12.8384Z" fill="white"/>
</g>
<defs>
<clipPath id="clip0_4_62">
<rect width="17" height="17" fill="white"/>
</clipPath>
</defs>
</svg>
