<svg width="40" height="40" viewBox="0 0 40 40" fill="none" xmlns="http://www.w3.org/2000/svg">
<path d="M21.6667 8.33332C21.6667 7.8913 21.4911 7.46737 21.1785 7.15481C20.866 6.84225 20.442 6.66666 20 6.66666C19.558 6.66666 19.1341 6.84225 18.8215 7.15481C18.5089 7.46737 18.3333 7.8913 18.3333 8.33332V9.99999C18.3333 10.442 18.5089 10.8659 18.8215 11.1785C19.1341 11.4911 19.558 11.6667 20 11.6667C20.442 11.6667 20.866 11.4911 21.1785 11.1785C21.4911 10.8659 21.6667 10.442 21.6667 9.99999V8.33332Z" fill="white"/>
<path fill-rule="evenodd" clip-rule="evenodd" d="M15.0467 31.6667H5.00001C4.55798 31.6667 4.13406 31.4911 3.8215 31.1785C3.50894 30.866 3.33334 30.442 3.33334 30C3.33334 29.558 3.50894 29.1341 3.8215 28.8215C4.13406 28.5089 4.55798 28.3333 5.00001 28.3333H11.3383C10.4612 26.8131 9.99964 25.0888 10 23.3337C10.0004 21.5785 10.4627 19.8544 11.3405 18.3346C12.2182 16.8147 13.4806 15.5526 15.0006 14.6752C16.5207 13.7977 18.2449 13.3358 20 13.3358C21.7551 13.3358 23.4794 13.7977 24.9994 14.6752C26.5194 15.5526 27.7818 16.8147 28.6596 18.3346C29.5373 19.8544 29.9996 21.5785 30 23.3337C30.0004 25.0888 29.5388 26.8131 28.6617 28.3333H35C35.442 28.3333 35.866 28.5089 36.1785 28.8215C36.4911 29.1341 36.6667 29.558 36.6667 30C36.6667 30.442 36.4911 30.866 36.1785 31.1785C35.866 31.4911 35.442 31.6667 35 31.6667H15.0467ZM20 16.6667C18.6458 16.6666 17.3237 17.0789 16.2097 17.8487C15.0956 18.6186 14.2424 19.7094 13.7636 20.9761C13.2848 22.2428 13.2031 23.6253 13.5293 24.9396C13.8556 26.2539 14.5744 27.4376 15.59 28.3333H24.41C25.4256 27.4376 26.1444 26.2539 26.4707 24.9396C26.797 23.6253 26.7153 22.2428 26.2364 20.9761C25.7576 19.7094 24.9044 18.6186 23.7903 17.8487C22.6763 17.0789 21.3542 16.6666 20 16.6667Z" fill="white"/>
<path d="M31.785 13.905L30.6067 15.0833C30.4529 15.2425 30.269 15.3695 30.0657 15.4568C29.8623 15.5442 29.6436 15.5902 29.4223 15.5921C29.201 15.594 28.9816 15.5518 28.7768 15.468C28.5719 15.3842 28.3858 15.2605 28.2294 15.104C28.0729 14.9475 27.9491 14.7614 27.8653 14.5566C27.7815 14.3518 27.7393 14.1323 27.7413 13.911C27.7432 13.6897 27.7892 13.471 27.8765 13.2677C27.9639 13.0643 28.0908 12.8804 28.25 12.7267L29.4283 11.5483C29.5821 11.3891 29.766 11.2622 29.9693 11.1748C30.1727 11.0875 30.3914 11.0415 30.6127 11.0396C30.834 11.0377 31.0534 11.0798 31.2583 11.1636C31.4631 11.2474 31.6492 11.3712 31.8057 11.5277C31.9622 11.6842 32.0859 11.8702 32.1697 12.0751C32.2535 12.2799 32.2957 12.4994 32.2938 12.7207C32.2918 12.942 32.2459 13.1607 32.1585 13.364C32.0712 13.5673 31.9442 13.7513 31.785 13.905ZM6.66668 25C7.1087 25 7.53263 24.8244 7.84519 24.5118C8.15775 24.1993 8.33334 23.7754 8.33334 23.3333C8.33334 22.8913 8.15775 22.4674 7.84519 22.1548C7.53263 21.8423 7.1087 21.6667 6.66668 21.6667H5.00001C4.55798 21.6667 4.13406 21.8423 3.8215 22.1548C3.50894 22.4674 3.33334 22.8913 3.33334 23.3333C3.33334 23.7754 3.50894 24.1993 3.8215 24.5118C4.13406 24.8244 4.55798 25 5.00001 25H6.66668ZM36.6667 23.3333C36.6667 23.7754 36.4911 24.1993 36.1785 24.5118C35.866 24.8244 35.442 25 35 25H33.3333C32.8913 25 32.4674 24.8244 32.1548 24.5118C31.8423 24.1993 31.6667 23.7754 31.6667 23.3333C31.6667 22.8913 31.8423 22.4674 32.1548 22.1548C32.4674 21.8423 32.8913 21.6667 33.3333 21.6667H35C35.442 21.6667 35.866 21.8423 36.1785 22.1548C36.4911 22.4674 36.6667 22.8913 36.6667 23.3333ZM9.39334 15.0833C9.70768 15.3869 10.1287 15.5549 10.5657 15.5511C11.0027 15.5473 11.4207 15.372 11.7297 15.063C12.0387 14.754 12.214 14.336 12.2178 13.899C12.2216 13.462 12.0536 13.041 11.75 12.7267L10.5717 11.5483C10.4188 11.3855 10.2348 11.2551 10.0305 11.1648C9.82624 11.0746 9.60591 11.0263 9.38261 11.0228C9.15932 11.0193 8.9376 11.0608 8.73063 11.1447C8.52366 11.2285 8.33566 11.3532 8.1778 11.5112C8.01995 11.6691 7.89544 11.8572 7.8117 12.0642C7.72795 12.2713 7.68666 12.493 7.69029 12.7163C7.69391 12.9396 7.74238 13.1599 7.8328 13.3641C7.92323 13.5683 8.05377 13.7522 8.21668 13.905L9.39501 15.0833H9.39334Z" fill="white"/>
</svg>
