<svg width="40" height="40" viewBox="0 0 40 40" fill="none" xmlns="http://www.w3.org/2000/svg">
<g clip-path="url(#clip0_5_196)">
<path d="M19.115 12.135C19.2311 12.2514 19.3691 12.3438 19.5209 12.4068C19.6728 12.4698 19.8356 12.5022 20 12.5022C20.1644 12.5022 20.3272 12.4698 20.4791 12.4068C20.6309 12.3438 20.7689 12.2514 20.885 12.135L24.635 8.385C24.7512 8.26878 24.8434 8.13081 24.9063 7.97896C24.9692 7.82711 25.0016 7.66436 25.0016 7.5C25.0016 7.33564 24.9692 7.17289 24.9063 7.02104C24.8434 6.86919 24.7512 6.73122 24.635 6.615C24.5188 6.49878 24.3808 6.40659 24.229 6.34369C24.0771 6.28079 23.9144 6.24842 23.75 6.24842C23.5856 6.24842 23.4229 6.28079 23.271 6.34369C23.1192 6.40659 22.9812 6.49878 22.865 6.615L21.25 8.2325V3.75C21.25 3.41848 21.1183 3.10054 20.8839 2.86612C20.6495 2.6317 20.3315 2.5 20 2.5C19.6685 2.5 19.3505 2.6317 19.1161 2.86612C18.8817 3.10054 18.75 3.41848 18.75 3.75V8.2325L17.135 6.615C17.0188 6.49878 16.8808 6.40659 16.729 6.34369C16.5771 6.28079 16.4144 6.24842 16.25 6.24842C16.0856 6.24842 15.9229 6.28079 15.771 6.34369C15.6192 6.40659 15.4812 6.49878 15.365 6.615C15.2488 6.73122 15.1566 6.86919 15.0937 7.02104C15.0308 7.17289 14.9984 7.33564 14.9984 7.5C14.9984 7.66436 15.0308 7.82711 15.0937 7.97896C15.1566 8.13081 15.2488 8.26878 15.365 8.385L19.115 12.135ZM5.8575 10.86C6.09191 10.6257 6.40979 10.494 6.74125 10.494C7.07271 10.494 7.39059 10.6257 7.625 10.86L11.16 14.3925C11.3877 14.6283 11.5137 14.944 11.5108 15.2718C11.508 15.5995 11.3765 15.913 11.1448 16.1448C10.913 16.3765 10.5995 16.508 10.2718 16.5108C9.94401 16.5137 9.62825 16.3877 9.3925 16.16L5.8575 12.625C5.62316 12.3906 5.49152 12.0727 5.49152 11.7412C5.49152 11.4098 5.62316 11.0919 5.8575 10.8575V10.86ZM34.1425 10.86C34.3761 11.0943 34.5072 11.4117 34.5072 11.7425C34.5072 12.0733 34.3761 12.3907 34.1425 12.625L30.6075 16.16C30.4922 16.2794 30.3543 16.3746 30.2018 16.4401C30.0492 16.5056 29.8852 16.5401 29.7193 16.5416C29.5533 16.543 29.3887 16.5114 29.2351 16.4485C29.0814 16.3857 28.9419 16.2929 28.8245 16.1755C28.7071 16.0581 28.6143 15.9186 28.5515 15.7649C28.4886 15.6113 28.457 15.4467 28.4584 15.2807C28.4599 15.1148 28.4944 14.9507 28.5599 14.7982C28.6254 14.6457 28.7206 14.5078 28.84 14.3925L32.375 10.8575C32.6094 10.6232 32.9273 10.4915 33.2588 10.4915C33.5902 10.4915 33.9081 10.6232 34.1425 10.8575V10.86ZM29.2725 28.75C29.8855 27.2321 30.1164 25.587 29.9451 23.959C29.7738 22.331 29.2054 20.7699 28.2899 19.4129C27.3744 18.0559 26.1397 16.9443 24.6943 16.1759C23.2489 15.4074 21.637 15.0056 20 15.0056C18.363 15.0056 16.7511 15.4074 15.3057 16.1759C13.8603 16.9443 12.6256 18.0559 11.7101 19.4129C10.7946 20.7699 10.2262 22.331 10.0549 23.959C9.88359 25.587 10.1145 27.2321 10.7275 28.75H1.25C0.918479 28.75 0.600537 28.8817 0.366117 29.1161C0.131696 29.3505 0 29.6685 0 30C0 30.3315 0.131696 30.6495 0.366117 30.8839C0.600537 31.1183 0.918479 31.25 1.25 31.25H38.75C39.0815 31.25 39.3995 31.1183 39.6339 30.8839C39.8683 30.6495 40 30.3315 40 30C40 29.6685 39.8683 29.3505 39.6339 29.1161C39.3995 28.8817 39.0815 28.75 38.75 28.75H29.275H29.2725ZM0 25C0 24.6685 0.131696 24.3505 0.366117 24.1161C0.600537 23.8817 0.918479 23.75 1.25 23.75H6.25C6.58152 23.75 6.89946 23.8817 7.13388 24.1161C7.3683 24.3505 7.5 24.6685 7.5 25C7.5 25.3315 7.3683 25.6495 7.13388 25.8839C6.89946 26.1183 6.58152 26.25 6.25 26.25H1.25C0.918479 26.25 0.600537 26.1183 0.366117 25.8839C0.131696 25.6495 0 25.3315 0 25ZM32.5 25C32.5 24.6685 32.6317 24.3505 32.8661 24.1161C33.1005 23.8817 33.4185 23.75 33.75 23.75H38.75C39.0815 23.75 39.3995 23.8817 39.6339 24.1161C39.8683 24.3505 40 24.6685 40 25C40 25.3315 39.8683 25.6495 39.6339 25.8839C39.3995 26.1183 39.0815 26.25 38.75 26.25H33.75C33.4185 26.25 33.1005 26.1183 32.8661 25.8839C32.6317 25.6495 32.5 25.3315 32.5 25Z" fill="white"/>
</g>
<defs>
<clipPath id="clip0_5_196">
<rect width="40" height="40" fill="white"/>
</clipPath>
</defs>
</svg>
