<svg width="40" height="40" viewBox="0 0 40 40" fill="none" xmlns="http://www.w3.org/2000/svg">
<path d="M20.678 2.05085V0.677966C20.678 0.303051 20.3743 0 20 0C19.6258 0 19.322 0.303051 19.322 0.677966V2.05085C10.4156 2.40814 3.17967 9.75458 3.05222 18.739C3.05018 18.9207 3.14442 19.1553 3.27188 19.2847C3.56815 19.5837 4.10849 19.5702 4.38849 19.2556C5.32544 18.2054 6.53561 17.6271 7.79662 17.6271C9.12679 17.6271 10.3865 18.2624 11.3424 19.4163C11.4712 19.5708 11.6624 19.661 11.8644 19.661C12.0665 19.661 12.2576 19.5708 12.3865 19.4163C13.3424 18.2624 14.602 17.6271 15.9322 17.6271C17.1932 17.6271 18.3865 18.2034 19.322 19.2447V36.6102C19.322 37.7315 18.4095 38.6441 17.2881 38.6441C16.1668 38.6441 15.2542 37.7315 15.2542 36.6102C15.2542 36.2353 14.9505 35.9322 14.5763 35.9322C14.202 35.9322 13.8983 36.2353 13.8983 36.6102C13.8983 38.4793 15.419 40 17.2881 40C19.1573 40 20.678 38.4793 20.678 36.6102V19.2447C21.6136 18.2034 22.8068 17.6271 24.0678 17.6271C25.398 17.6271 26.6576 18.2624 27.6136 19.4163C27.7424 19.5708 27.9336 19.661 28.1356 19.661C28.3376 19.661 28.5288 19.5708 28.6576 19.4163C29.6136 18.2624 30.8732 17.6271 32.2034 17.6271C33.4644 17.6271 34.6746 18.2054 35.6102 19.2542C35.8922 19.5708 36.4326 19.5837 36.7275 19.2841C36.8549 19.1553 36.9498 18.9193 36.9471 18.7369C36.8204 9.75458 29.5844 2.40814 20.678 2.05085Z" fill="white"/>
</svg>
