<svg width="40" height="40" viewBox="0 0 40 40" fill="none" xmlns="http://www.w3.org/2000/svg">
<g clip-path="url(#clip0_5_155)">
<path d="M29.107 16.0952C25.2184 11.0201 21.5272 7.59271 21.1978 0.869768C21.1978 0.672035 21.1319 0.540213 21 0.40839C20.9341 0.0788344 20.6046 -0.118899 20.275 0.0788344C19.8795 0.0788344 19.5501 0.342479 19.5501 0.803857C11.2453 9.76778 -2.79379 32.5071 14.8704 39.0322C22.8457 41.9983 31.8755 37.9778 33.4574 29.2774C34.3141 24.5978 31.8753 19.6546 29.107 16.0952ZM14.9362 34.814C13.0248 33.6935 11.8384 31.4527 11.2452 29.4752C10.9815 28.4865 10.8497 27.498 10.9156 26.5093C11.3111 24.7956 11.8384 23.1477 12.4316 21.5001C12.7611 22.95 13.4203 24.4002 14.343 25.4546C16.4522 27.7617 20.7364 29.1458 21.9228 32.0459C22.6478 33.8254 19.8136 35.3414 18.6272 35.7368C17.3749 36.1322 15.9907 35.4732 14.9362 34.814Z" fill="white"/>
</g>
<defs>
<clipPath id="clip0_5_155">
<rect width="40" height="40" fill="white"/>
</clipPath>
</defs>
</svg>
