<svg width="40" height="40" viewBox="0 0 40 40" fill="none" xmlns="http://www.w3.org/2000/svg">
<path d="M33.5008 20.7337H0.820912C0.36744 20.7337 0 20.3662 0 19.9128C0 19.4595 0.36744 19.0919 0.820912 19.0919H33.3421C33.3934 19.0818 33.4465 19.0766 33.5008 19.0766C36.1791 19.0766 38.3582 16.8976 38.3582 14.2192C38.3582 11.5408 36.1791 9.36169 33.5008 9.36169C30.8224 9.36169 28.6434 11.5407 28.6434 14.2191C28.6434 14.6724 28.2759 15.04 27.8225 15.04C27.369 15.04 27.0016 14.6724 27.0016 14.2191C27.0016 10.6354 29.9171 7.71986 33.5008 7.71986C37.0844 7.71986 40 10.6354 40 14.2191C40 17.7462 37.176 20.626 33.6703 20.7161C33.6156 20.7277 33.559 20.7337 33.5008 20.7337Z" fill="white"/>
<path d="M16.6681 15.0478H0.820913C0.36744 15.0478 0 14.6802 0 14.2269C0 13.7735 0.36744 13.4059 0.820913 13.4059H16.5094C16.5608 13.3959 16.6138 13.3906 16.6681 13.3906C19.3465 13.3906 21.5255 11.2116 21.5255 8.53322C21.5255 5.85486 19.3465 3.67583 16.6681 3.67583C13.9897 3.67583 11.8106 5.85486 11.8106 8.53322C11.8106 8.98659 11.4432 9.35414 10.9897 9.35414C10.5362 9.35414 10.1688 8.98659 10.1688 8.53322C10.1688 4.94956 13.0845 2.034 16.6681 2.034C20.2518 2.034 23.1674 4.94956 23.1674 8.53322C23.1674 12.0603 20.3433 14.9402 16.8377 15.0303C16.783 15.0416 16.7263 15.0478 16.6681 15.0478Z" fill="white"/>
<path d="M26.7274 37.9662C23.1437 37.9662 20.2281 35.0507 20.2281 31.467C20.2281 31.0136 20.5955 30.6461 21.049 30.6461C21.5024 30.6461 21.8699 31.0136 21.8699 31.467C21.8699 34.1454 24.0489 36.3244 26.7274 36.3244C29.4057 36.3244 31.5848 34.1454 31.5848 31.467C31.5848 28.7886 29.4057 26.6096 26.7274 26.6096H0.820912C0.36744 26.6096 0 26.2421 0 25.7887C0 25.3353 0.36744 24.9678 0.820912 24.9678H26.7274C30.311 24.9678 33.2266 27.8833 33.2266 31.467C33.2266 35.0507 30.311 37.9662 26.7274 37.9662Z" fill="white"/>
</svg>
